<?xml version="1.0" encoding="UTF-8" standalone="no"?>
<!DOCTYPE svg PUBLIC "-//W3C//DTD SVG 1.1//EN" "http://www.w3.org/Graphics/SVG/1.1/DTD/svg11.dtd">
<svg width="100%" height="100%" viewBox="0 0 500 500" version="1.1" xmlns="http://www.w3.org/2000/svg" xmlns:xlink="http://www.w3.org/1999/xlink" xml:space="preserve" xmlns:serif="http://www.serif.com/" style="fill-rule:evenodd;clip-rule:evenodd;stroke-linecap:round;stroke-linejoin:round;stroke-miterlimit:1.5;">
    <path d="M446.282,396.443C446.282,442.048 358.331,479.074 250,479.074C141.669,479.074 53.718,442.048 53.718,396.443L53.718,344.333L53.973,348.582C59.226,392.213 145.049,426.964 250,426.964C358.331,426.964 446.282,389.938 446.282,344.333L446.282,396.443ZM446.282,308.018C446.282,353.624 358.331,390.65 250,390.65C141.669,390.65 53.718,353.624 53.718,308.018L53.718,255.908L53.973,260.158C59.226,303.788 145.049,338.54 250,338.54C358.331,338.54 446.282,301.514 446.282,255.908L446.282,308.018ZM446.282,220.541C446.282,266.147 358.331,303.173 250,303.173C141.669,303.173 53.718,266.147 53.718,220.541L53.718,168.431L53.973,172.681C59.226,216.311 145.049,251.063 250,251.063C358.331,251.063 446.282,214.037 446.282,168.431L446.282,220.541ZM250,47.926C358.331,47.926 446.282,84.952 446.282,130.557C446.282,176.163 358.331,213.189 250,213.189C141.669,213.189 53.718,176.163 53.718,130.557C53.718,84.952 141.669,47.926 250,47.926Z" style="fill:none;stroke:rgb(50,29,51);stroke-width:10.42px;"/>
</svg>
