<?xml version="1.0" encoding="UTF-8" standalone="no"?>
<!DOCTYPE svg PUBLIC "-//W3C//DTD SVG 1.1//EN" "http://www.w3.org/Graphics/SVG/1.1/DTD/svg11.dtd">
<svg width="100%" height="100%" viewBox="0 0 500 320" version="1.1" xmlns="http://www.w3.org/2000/svg" xmlns:xlink="http://www.w3.org/1999/xlink" xml:space="preserve" xmlns:serif="http://www.serif.com/" style="fill-rule:evenodd;clip-rule:evenodd;stroke-linejoin:round;stroke-miterlimit:2;">
    <path d="M211.971,287.518C211.971,287.518 231.281,257.82 231.281,237.504C231.281,217.186 222.677,208.139 213.351,204.134C206.366,201.096 198.971,200.907 194.513,200.907C190.057,200.907 182.662,201.095 175.675,204.131L175.675,204.134C166.349,208.139 157.745,217.186 157.745,237.504C157.745,257.82 177.055,287.518 177.055,287.518L68.297,287.518L125.049,257.581C125.049,257.581 106.016,208.609 112.383,190.102C118.749,171.594 143.422,150.982 163.248,146.536C182.069,142.316 206.748,144.923 221.009,151.356C229.848,155.343 238.924,167.58 244.208,176.65L254.412,176.65C259.696,167.58 268.772,155.343 277.61,151.356C291.872,144.923 316.551,142.316 335.371,146.536C355.198,150.982 379.871,171.594 386.237,190.102C392.604,208.609 373.571,257.581 373.571,257.581L430.323,287.518L321.565,287.518C321.565,287.518 340.875,257.82 340.875,237.504C340.875,217.186 332.271,208.139 322.945,204.134L322.945,204.131C315.958,201.095 308.563,200.907 304.107,200.907C299.649,200.907 292.253,201.096 285.269,204.134C275.943,208.139 267.339,217.186 267.339,237.504C267.339,257.82 286.649,287.518 286.649,287.518L211.971,287.518Z" style="fill:rgb(252,221,217);"/>
    <path d="M323.393,137.79L323.432,75.278L422.003,8.673L376.102,88.306L376.102,139.703L376.183,139.703L376.317,166.522C365.633,153.77 349.305,142.66 335.371,139.536C331.573,138.684 327.537,138.111 323.393,137.79Z" style="fill:rgb(208,214,181);"/>
    <path d="M77.58,236.792L45.525,210.055L8.599,252.165L66.853,282.464L116.615,254.593C110.481,241.955 106.721,227.057 104.295,210.891L79.435,234.993L88.889,244.528L67.428,263.105L47.251,247.279L48.841,245.237L67.392,259.705L85.04,244.539L77.58,236.792ZM420.171,236.792L452.226,210.055L489.152,252.165L430.898,282.464L381.136,254.593C387.27,241.955 391.03,227.057 393.456,210.891L418.316,234.993L408.862,244.528L430.323,263.105L450.5,247.279L448.91,245.237L430.359,259.705L412.711,244.539L420.171,236.792Z" style="fill:rgb(208,214,181);"/>
</svg>
